<svg width="190" height="22" viewBox="0 0 190 22" fill="none" xmlns="http://www.w3.org/2000/svg">
<g filter="url(#filter0_i_1163_7558)">
<path fill-rule="evenodd" clip-rule="evenodd" d="M13.544 0.487976C13.2368 0.487976 13.0832 0.487976 12.9659 0.547754C12.8627 0.600336 12.7788 0.684239 12.7262 0.787438C12.6665 0.904759 12.6665 1.05834 12.6665 1.3655V4.69965C12.6665 5.00681 12.6665 5.1604 12.7262 5.27772C12.7788 5.38092 12.8627 5.46482 12.9659 5.5174C13.0832 5.57718 13.2368 5.57718 13.544 5.57718H16.8708C17.1779 5.57718 17.3315 5.57718 17.4488 5.5174C17.552 5.46482 17.6359 5.38092 17.6885 5.27772C17.7483 5.1604 17.7483 5.00681 17.7483 4.69965V1.3655C17.7483 1.05834 17.7483 0.904759 17.6885 0.787438C17.6359 0.684239 17.552 0.600336 17.4488 0.547754C17.3315 0.487976 17.1779 0.487976 16.8708 0.487976H13.544ZM37.019 0.487991C37.3261 0.487991 37.4797 0.487991 37.597 0.547769C37.7002 0.600352 37.7841 0.684255 37.8367 0.787453C37.8965 0.904774 37.8965 1.05836 37.8965 1.36552V4.67673C37.8965 4.98389 37.8965 5.13747 37.8367 5.25479C37.7841 5.35799 37.7002 5.44189 37.597 5.49448C37.4797 5.55426 37.3261 5.55426 37.019 5.55426H21.0421C20.7349 5.55426 20.5813 5.55426 20.464 5.49448C20.3608 5.44189 20.2769 5.35799 20.2243 5.25479C20.1646 5.13747 20.1646 4.98389 20.1646 4.67673V1.36552C20.1646 1.05836 20.1646 0.904774 20.2243 0.787453C20.2769 0.684255 20.3608 0.600352 20.464 0.547769C20.5813 0.487991 20.7349 0.487991 21.0421 0.487991H37.019ZM0.87846 21.512C0.571297 21.512 0.417713 21.512 0.300392 21.4522C0.197193 21.3996 0.113293 21.3157 0.0607071 21.2125C0.000930786 21.0952 0.000930786 20.9416 0.000930786 20.6345V17.3232C0.000930786 17.0161 0.000930786 16.8625 0.0607071 16.7452C0.113293 16.642 0.197193 16.5581 0.300392 16.5055C0.417713 16.4457 0.571297 16.4457 0.878456 16.4457H16.8553C17.1625 16.4457 17.3161 16.4457 17.4334 16.5055C17.5366 16.5581 17.6205 16.642 17.6731 16.7452C17.7329 16.8625 17.7329 17.0161 17.7329 17.3232V20.6345C17.7329 20.9416 17.7329 21.0952 17.6731 21.2125C17.6205 21.3157 17.5366 21.3996 17.4334 21.4522C17.3161 21.512 17.1625 21.512 16.8553 21.512H0.87846ZM7.20099 8.42925C6.89383 8.42925 6.74024 8.42925 6.62292 8.48903C6.51972 8.54161 6.43582 8.62551 6.38324 8.72871C6.32346 8.84603 6.32346 8.99962 6.32346 9.30678V12.8268C6.32346 13.134 6.32346 13.2875 6.38324 13.4049C6.43582 13.5081 6.51972 13.592 6.62292 13.6445C6.74024 13.7043 6.89383 13.7043 7.20099 13.7043H16.853C17.1602 13.7043 17.3138 13.7043 17.4311 13.6445C17.5343 13.592 17.6182 13.5081 17.6708 13.4049C17.7306 13.2875 17.7306 13.134 17.7306 12.8268V9.30678C17.7306 8.99962 17.7306 8.84603 17.6708 8.72871C17.6182 8.62551 17.5343 8.54161 17.4311 8.48903C17.3138 8.42925 17.1602 8.42925 16.853 8.42925H7.20099ZM30.6969 8.29587C31.004 8.29587 31.1576 8.29587 31.2749 8.35565C31.3781 8.40823 31.462 8.49213 31.5146 8.59533C31.5744 8.71265 31.5744 8.86624 31.5744 9.1734V12.6934C31.5744 13.0006 31.5744 13.1542 31.5146 13.2715C31.462 13.3747 31.3781 13.4586 31.2749 13.5112C31.1576 13.5709 31.004 13.5709 30.6969 13.5709H21.0448C20.7377 13.5709 20.5841 13.5709 20.4668 13.5112C20.3636 13.4586 20.2797 13.3747 20.2271 13.2715C20.1673 13.1542 20.1673 13.0006 20.1673 12.6934V9.1734C20.1673 8.86624 20.1673 8.71265 20.2271 8.59533C20.2797 8.49213 20.3636 8.40823 20.4668 8.35565C20.5841 8.29587 20.7377 8.29587 21.0448 8.29587H30.6969ZM24.3534 16.4228C24.6606 16.4228 24.8142 16.4228 24.9315 16.4826C25.0347 16.5352 25.1186 16.6191 25.1712 16.7223C25.231 16.8396 25.231 16.9932 25.231 17.3004V20.6345C25.231 20.9417 25.231 21.0953 25.1712 21.2126C25.1186 21.3158 25.0347 21.3997 24.9315 21.4523C24.8142 21.512 24.6606 21.512 24.3534 21.512H21.0266C20.7195 21.512 20.5659 21.512 20.4486 21.4523C20.3454 21.3997 20.2615 21.3158 20.2089 21.2126C20.1491 21.0953 20.1491 20.9417 20.1491 20.6345V17.3004C20.1491 16.9932 20.1491 16.8396 20.2089 16.7223C20.2615 16.6191 20.3454 16.5352 20.4486 16.4826C20.5659 16.4228 20.7195 16.4228 21.0266 16.4228H24.3534Z" fill="#D9D9D9"/>
<path fill-rule="evenodd" clip-rule="evenodd" d="M13.544 0.487976C13.2368 0.487976 13.0832 0.487976 12.9659 0.547754C12.8627 0.600336 12.7788 0.684239 12.7262 0.787438C12.6665 0.904759 12.6665 1.05834 12.6665 1.3655V4.69965C12.6665 5.00681 12.6665 5.1604 12.7262 5.27772C12.7788 5.38092 12.8627 5.46482 12.9659 5.5174C13.0832 5.57718 13.2368 5.57718 13.544 5.57718H16.8708C17.1779 5.57718 17.3315 5.57718 17.4488 5.5174C17.552 5.46482 17.6359 5.38092 17.6885 5.27772C17.7483 5.1604 17.7483 5.00681 17.7483 4.69965V1.3655C17.7483 1.05834 17.7483 0.904759 17.6885 0.787438C17.6359 0.684239 17.552 0.600336 17.4488 0.547754C17.3315 0.487976 17.1779 0.487976 16.8708 0.487976H13.544ZM37.019 0.487991C37.3261 0.487991 37.4797 0.487991 37.597 0.547769C37.7002 0.600352 37.7841 0.684255 37.8367 0.787453C37.8965 0.904774 37.8965 1.05836 37.8965 1.36552V4.67673C37.8965 4.98389 37.8965 5.13747 37.8367 5.25479C37.7841 5.35799 37.7002 5.44189 37.597 5.49448C37.4797 5.55426 37.3261 5.55426 37.019 5.55426H21.0421C20.7349 5.55426 20.5813 5.55426 20.464 5.49448C20.3608 5.44189 20.2769 5.35799 20.2243 5.25479C20.1646 5.13747 20.1646 4.98389 20.1646 4.67673V1.36552C20.1646 1.05836 20.1646 0.904774 20.2243 0.787453C20.2769 0.684255 20.3608 0.600352 20.464 0.547769C20.5813 0.487991 20.7349 0.487991 21.0421 0.487991H37.019ZM0.87846 21.512C0.571297 21.512 0.417713 21.512 0.300392 21.4522C0.197193 21.3996 0.113293 21.3157 0.0607071 21.2125C0.000930786 21.0952 0.000930786 20.9416 0.000930786 20.6345V17.3232C0.000930786 17.0161 0.000930786 16.8625 0.0607071 16.7452C0.113293 16.642 0.197193 16.5581 0.300392 16.5055C0.417713 16.4457 0.571297 16.4457 0.878456 16.4457H16.8553C17.1625 16.4457 17.3161 16.4457 17.4334 16.5055C17.5366 16.5581 17.6205 16.642 17.6731 16.7452C17.7329 16.8625 17.7329 17.0161 17.7329 17.3232V20.6345C17.7329 20.9416 17.7329 21.0952 17.6731 21.2125C17.6205 21.3157 17.5366 21.3996 17.4334 21.4522C17.3161 21.512 17.1625 21.512 16.8553 21.512H0.87846ZM7.20099 8.42925C6.89383 8.42925 6.74024 8.42925 6.62292 8.48903C6.51972 8.54161 6.43582 8.62551 6.38324 8.72871C6.32346 8.84603 6.32346 8.99962 6.32346 9.30678V12.8268C6.32346 13.134 6.32346 13.2875 6.38324 13.4049C6.43582 13.5081 6.51972 13.592 6.62292 13.6445C6.74024 13.7043 6.89383 13.7043 7.20099 13.7043H16.853C17.1602 13.7043 17.3138 13.7043 17.4311 13.6445C17.5343 13.592 17.6182 13.5081 17.6708 13.4049C17.7306 13.2875 17.7306 13.134 17.7306 12.8268V9.30678C17.7306 8.99962 17.7306 8.84603 17.6708 8.72871C17.6182 8.62551 17.5343 8.54161 17.4311 8.48903C17.3138 8.42925 17.1602 8.42925 16.853 8.42925H7.20099ZM30.6969 8.29587C31.004 8.29587 31.1576 8.29587 31.2749 8.35565C31.3781 8.40823 31.462 8.49213 31.5146 8.59533C31.5744 8.71265 31.5744 8.86624 31.5744 9.1734V12.6934C31.5744 13.0006 31.5744 13.1542 31.5146 13.2715C31.462 13.3747 31.3781 13.4586 31.2749 13.5112C31.1576 13.5709 31.004 13.5709 30.6969 13.5709H21.0448C20.7377 13.5709 20.5841 13.5709 20.4668 13.5112C20.3636 13.4586 20.2797 13.3747 20.2271 13.2715C20.1673 13.1542 20.1673 13.0006 20.1673 12.6934V9.1734C20.1673 8.86624 20.1673 8.71265 20.2271 8.59533C20.2797 8.49213 20.3636 8.40823 20.4668 8.35565C20.5841 8.29587 20.7377 8.29587 21.0448 8.29587H30.6969ZM24.3534 16.4228C24.6606 16.4228 24.8142 16.4228 24.9315 16.4826C25.0347 16.5352 25.1186 16.6191 25.1712 16.7223C25.231 16.8396 25.231 16.9932 25.231 17.3004V20.6345C25.231 20.9417 25.231 21.0953 25.1712 21.2126C25.1186 21.3158 25.0347 21.3997 24.9315 21.4523C24.8142 21.512 24.6606 21.512 24.3534 21.512H21.0266C20.7195 21.512 20.5659 21.512 20.4486 21.4523C20.3454 21.3997 20.2615 21.3158 20.2089 21.2126C20.1491 21.0953 20.1491 20.9417 20.1491 20.6345V17.3004C20.1491 16.9932 20.1491 16.8396 20.2089 16.7223C20.2615 16.6191 20.3454 16.5352 20.4486 16.4826C20.5659 16.4228 20.7195 16.4228 21.0266 16.4228H24.3534Z" fill="url(#paint0_linear_1163_7558)"/>
</g>
<path d="M114.603 2.32629L108.501 14.1281V19.9537H104.207V14.1281L98.1055 2.32629H102.977L106.392 9.7087L109.782 2.32629H114.603Z" fill="white"/>
<path d="M96.9793 2.32629V5.7664H89.7978V9.48271H95.1713V12.8224H89.7978V19.9537H85.5039V2.32629H96.9793Z" fill="white"/>
<path d="M82.1396 2.32629V19.9537H77.8457V2.32629H82.1396Z" fill="white"/>
<path d="M70.443 19.9537L66.8522 14.555L63.6883 19.9537H58.817L64.4668 10.9893L58.6914 2.32629H63.6883L67.2289 7.64966L70.3426 2.32629H75.2139L69.6144 11.2153L75.4399 19.9537H70.443Z" fill="white"/>
<path d="M57.1375 2.32632V5.76643H49.956V9.48274H55.3295V12.8224H49.956V19.9537H45.6621V2.32632H57.1375Z" fill="white"/>
<path d="M179.635 20.0949C178.258 20.0949 176.899 19.6624 175.559 18.7972V16.8415C175.998 17.268 176.589 17.6518 177.332 17.993C178.075 18.3342 178.837 18.5048 179.616 18.5048C180.25 18.5048 180.75 18.389 181.115 18.1575C181.481 17.9138 181.657 17.6031 181.645 17.2254C181.645 16.8964 181.444 16.6161 181.042 16.3846C180.652 16.1531 179.982 15.9398 179.032 15.7449C177.813 15.4768 176.911 15.1356 176.327 14.7213C175.742 14.2949 175.449 13.71 175.449 12.9667C175.449 12.0772 175.827 11.3766 176.582 10.8648C177.35 10.353 178.264 10.0971 179.324 10.0971C180.555 10.0971 181.804 10.4566 183.071 11.1755V12.9119C181.755 12.0833 180.506 11.669 179.324 11.669C178.764 11.669 178.282 11.7909 177.88 12.0346C177.478 12.2661 177.277 12.5707 177.277 12.9484C177.277 13.3505 177.588 13.6612 178.209 13.8806C178.502 13.9902 179.141 14.1486 180.128 14.3558C181.335 14.6117 182.188 14.9772 182.687 15.4524C183.199 15.9277 183.455 16.5186 183.455 17.2254C183.455 18.1636 183.089 18.8764 182.358 19.3638C181.627 19.8512 180.719 20.0949 179.635 20.0949Z" fill="white"/>
<path d="M169.358 20.0949C167.969 20.0949 166.793 19.6075 165.831 18.6327C164.868 17.6457 164.387 16.4638 164.387 15.0869C164.387 13.6978 164.874 12.522 165.849 11.5593C166.824 10.5845 167.993 10.0971 169.358 10.0971C170.577 10.0971 171.643 10.5053 172.557 11.3217C173.483 12.1259 174.037 13.1251 174.22 14.3192C174.33 14.8676 174.336 15.3489 174.238 15.7632H166.196C166.306 16.5796 166.653 17.2315 167.238 17.7189C167.835 18.2063 168.542 18.45 169.358 18.45C169.931 18.45 170.473 18.3281 170.985 18.0844C171.497 17.8407 171.917 17.5056 172.246 17.0791L173.873 17.4995C173.483 18.2794 172.867 18.9069 172.027 19.3821C171.186 19.8573 170.296 20.0949 169.358 20.0949ZM166.196 14.3375H172.447C172.325 13.5942 171.978 12.9728 171.405 12.4732C170.833 11.9736 170.144 11.7238 169.34 11.7238C168.524 11.7238 167.823 11.9797 167.238 12.4915C166.653 12.9911 166.306 13.6064 166.196 14.3375Z" fill="white"/>
<path d="M158.311 19.949V10.262H160.138V12.0166C160.431 11.3464 160.906 10.8468 161.564 10.5178C162.234 10.1767 163.038 10.0792 163.977 10.2254V12.1628C162.953 11.8704 162.057 11.9983 161.29 12.5466C160.522 13.095 160.138 13.9296 160.138 15.0507V19.949H158.311Z" fill="white"/>
<path d="M151.467 20.1133C150.358 20.1133 149.401 19.7538 148.597 19.0349C147.793 18.3038 147.391 17.3412 147.391 16.147V10.2617H149.218V15.6353C149.218 16.4882 149.468 17.1645 149.968 17.6641C150.48 18.1515 151.095 18.3952 151.814 18.3952C152.642 18.3952 153.319 18.0966 153.843 17.4996C154.379 16.9025 154.647 16.147 154.647 15.2332V10.2617H156.475V19.9488H154.647V18.4683C153.891 19.5649 152.831 20.1133 151.467 20.1133Z" fill="white"/>
<path d="M146.028 19.8755C144.542 20.2776 143.348 20.2167 142.446 19.6927C141.557 19.1688 141.112 18.2305 141.112 16.878L141.13 11.8517H139.211V10.2616H141.13V7.75754H142.94L142.921 10.2616H145.992V11.8517H142.921L142.903 16.8597C142.903 17.5421 143.159 18.0051 143.671 18.2488C144.195 18.4803 144.981 18.4377 146.028 18.1209V19.8755Z" fill="white"/>
<path d="M132.822 20.1133C131.713 20.1133 130.757 19.7538 129.952 19.0349C129.148 18.3038 128.746 17.3412 128.746 16.147V10.2617H130.574V15.6353C130.574 16.4882 130.824 17.1645 131.323 17.6641C131.835 18.1515 132.45 18.3952 133.169 18.3952C133.998 18.3952 134.674 18.0966 135.198 17.4996C135.734 16.9025 136.002 16.147 136.002 15.2332V10.2617H137.83V19.9488H136.002V18.4683C135.247 19.5649 134.187 20.1133 132.822 20.1133Z" fill="white"/>
<path d="M118.438 19.9486V7.15436H127.558V8.89072H120.32V12.6924H126.827V14.3922H120.32V19.9486H118.438Z" fill="white"/>
<path d="M187.487 4.76582H187.141V2.07147H187.487L188.572 3.96521L189.654 2.07147H190V4.76582H189.654V2.72966L188.684 4.43095H188.457L187.487 2.73351V4.76582Z" fill="white"/>
<path d="M185.421 2.39473H184.412V2.07141H186.775V2.39473H185.767V4.76576H185.421V2.39473Z" fill="white"/>
<defs>
<filter id="filter0_i_1163_7558" x="-0.623507" y="0.487976" width="38.52" height="21.6476" filterUnits="userSpaceOnUse" color-interpolation-filters="sRGB">
<feFlood flood-opacity="0" result="BackgroundImageFix"/>
<feBlend mode="normal" in="SourceGraphic" in2="BackgroundImageFix" result="shape"/>
<feColorMatrix in="SourceAlpha" type="matrix" values="0 0 0 0 0 0 0 0 0 0 0 0 0 0 0 0 0 0 127 0" result="hardAlpha"/>
<feOffset dx="-0.623507" dy="0.623507"/>
<feGaussianBlur stdDeviation="0.935261"/>
<feComposite in2="hardAlpha" operator="arithmetic" k2="-1" k3="1"/>
<feColorMatrix type="matrix" values="0 0 0 0 1 0 0 0 0 1 0 0 0 0 1 0 0 0 0.23 0"/>
<feBlend mode="normal" in2="shape" result="effect1_innerShadow_1163_7558"/>
</filter>
<linearGradient id="paint0_linear_1163_7558" x1="-5.14324" y1="4.36564" x2="4.02161" y2="27.8911" gradientUnits="userSpaceOnUse">
<stop stop-color="#E0F4FF"/>
<stop offset="1" stop-color="#207ED5"/>
</linearGradient>
</defs>
</svg>
